<svg width="20" height="20" viewBox="0 0 20 20" fill="none" xmlns="http://www.w3.org/2000/svg">
<rect width="20" height="20" rx="4" fill="#EBEEF6"/>
<mask id="mask0_716_236" style="mask-type:alpha" maskUnits="userSpaceOnUse" x="0" y="0" width="20" height="20">
<rect width="20" height="20" fill="#D9D9D9"/>
</mask>
<g mask="url(#mask0_716_236)">
<path d="M10.0026 15.9486C9.73661 15.9486 9.51212 15.8571 9.32915 15.6741C9.14617 15.4911 9.05469 15.2667 9.05469 15.0007V10.9486H5.0026C4.7366 10.9486 4.51212 10.8571 4.32915 10.6741C4.14617 10.4911 4.05469 10.2667 4.05469 10.0007C4.05469 9.73465 4.14617 9.51017 4.32915 9.32719C4.51212 9.14422 4.7366 9.05273 5.0026 9.05273H9.05469V5.00065C9.05469 4.73465 9.14617 4.51017 9.32915 4.32719C9.51212 4.14422 9.73661 4.05273 10.0026 4.05273C10.2686 4.05273 10.4931 4.14422 10.6761 4.32719C10.859 4.51017 10.9505 4.73465 10.9505 5.00065V9.05273H15.0026C15.2686 9.05273 15.4931 9.14422 15.6761 9.32719C15.859 9.51017 15.9505 9.73465 15.9505 10.0007C15.9505 10.2667 15.859 10.4911 15.6761 10.6741C15.4931 10.8571 15.2686 10.9486 15.0026 10.9486H10.9505V15.0007C10.9505 15.2667 10.859 15.4911 10.6761 15.6741C10.4931 15.8571 10.2686 15.9486 10.0026 15.9486Z" fill="#3D8FEC"/>
</g>
</svg>
